<svg width="128" height="78" viewBox="0 0 128 78" fill="none" xmlns="http://www.w3.org/2000/svg">
<g clip-path="url(#clip0_4174_1654)">
<path d="M-0.0219727 -0.0285322C0.951834 35.6529 38.6048 30.7871 38.6048 30.7871C9.39137 20.0826 8.74229 7.75651 8.74229 7.75651L16.8571 5.16138L39.2541 18.1363L46.3951 34.0309L45.0968 53.8178L37.0129 63.5493L25.9455 70.361L20.7522 72.3073L19.7783 68.4149L23.6736 52.196L36.9818 46.0327C9.39138 45.0598 14.9095 78.1461 14.9095 78.1461C47.0442 80.4169 51.5887 36.6259 51.5887 36.6259L63.9233 50.851V39.3967C63.9233 39.3967 59.3788 35.6529 43.1492 16.1902C30.9768 1.59327 12.7795 -0.231323 4.44138 -0.231323C1.66208 -0.231323 -0.0219727 -0.0285322 -0.0219727 -0.0285322Z" fill="url(#paint0_linear_4174_1654)"/>
<path d="M84.698 16.1903C68.4684 35.653 63.9241 39.3968 63.9241 39.3968V50.8512L76.2585 36.626C76.2585 36.626 80.803 80.417 112.938 78.1462C112.938 78.1462 118.456 45.0599 90.8654 46.0329L104.174 52.1961L108.069 68.415L107.095 72.3075L101.901 70.3612L90.8345 63.5494L82.7504 53.8179L81.4522 34.0311L88.5931 18.1365L110.99 5.1615L119.105 7.75663C119.105 7.75663 118.456 20.0828 89.2423 30.7873C89.2423 30.7873 126.895 35.653 127.869 -0.0284101C127.869 -0.0284101 126.185 -0.231201 123.406 -0.231201C115.068 -0.231201 96.8703 1.59339 84.698 16.1903Z" fill="url(#paint1_linear_4174_1654)"/>
<path d="M90.5401 13.2709C74.3105 26.8947 63.9235 45.3841 63.9235 45.3841C63.9235 45.3841 53.5366 26.8947 37.3068 13.2709C21.077 -0.353055 0.627563 1.59325 0.627563 1.59325C0.65257 1.81114 0.679198 2.02724 0.707083 2.24154C4.30295 29.7892 31.7886 28.1922 31.7886 28.1922C5.17187 15.217 8.74256 7.75649 8.74256 7.75649C8.74256 7.75649 39.9035 8.72947 44.4478 32.4089C50.5 63.9459 21.7262 70.0367 21.7262 70.0367C23.9984 49.9253 36.982 46.0327 36.982 46.0327C12.3129 43.7623 14.585 75.5511 14.585 75.5511C14.585 75.5511 21.7262 78.7949 35.6839 68.7392C54.5334 55.1591 51.589 36.6259 51.589 36.6259L63.9235 50.851L76.2579 36.6259C76.2579 36.6259 73.3135 55.1591 92.163 68.7392C106.121 78.7949 113.262 75.5511 113.262 75.5511C113.262 75.5511 115.534 43.7623 90.8649 46.0327C90.8649 46.0327 103.849 49.9253 106.121 70.0367C106.121 70.0367 77.3469 63.9459 83.3991 32.4089C87.9434 8.72947 119.105 7.75649 119.105 7.75649C119.105 7.75649 122.675 15.217 96.0583 28.1922C96.0583 28.1922 123.544 29.7892 127.14 2.24154C127.168 2.02724 127.194 1.81114 127.219 1.59325C127.219 1.59325 126.208 1.49707 124.46 1.49707C118.34 1.49689 103.164 2.67373 90.5401 13.2709Z" fill="url(#paint2_linear_4174_1654)"/>
</g>
<defs>
<linearGradient id="paint0_linear_4174_1654" x1="-0.0218755" y1="39.0001" x2="63.9232" y2="39.0001" gradientUnits="userSpaceOnUse">
<stop stop-color="#ED2723"/>
<stop offset="1" stop-color="#FBA60B"/>
</linearGradient>
<linearGradient id="paint1_linear_4174_1654" x1="63.924" y1="39.0002" x2="127.869" y2="39.0002" gradientUnits="userSpaceOnUse">
<stop stop-color="#ED2723"/>
<stop offset="1" stop-color="#FBA60B"/>
</linearGradient>
<linearGradient id="paint2_linear_4174_1654" x1="0.627585" y1="38.7736" x2="127.219" y2="38.7736" gradientUnits="userSpaceOnUse">
<stop stop-color="#ED2723"/>
<stop offset="1" stop-color="#FBA60B"/>
</linearGradient>
<clipPath id="clip0_4174_1654">
<rect width="128" height="78" fill="white"/>
</clipPath>
</defs>
</svg>
